<svg id="Laag_1" data-name="Laag 1" xmlns="http://www.w3.org/2000/svg" xmlns:xlink="http://www.w3.org/1999/xlink" viewBox="0 0 1454.14 1685.87"><defs><style>.cls-1,.cls-12,.cls-7,.cls-8{fill:none;}.cls-2{clip-path:url(#clip-path);}.cls-11,.cls-16,.cls-18,.cls-19,.cls-21,.cls-24,.cls-3,.cls-9{fill:#1d1d1b;}.cls-4{fill:#c6c6c6;}.cls-5{fill:#616160;}.cls-10,.cls-11,.cls-20,.cls-6,.cls-9{font-size:39.73px;}.cls-13,.cls-14,.cls-15,.cls-17,.cls-20,.cls-6{fill:#fff;}.cls-10,.cls-11,.cls-13,.cls-14,.cls-15,.cls-16,.cls-17,.cls-18,.cls-19,.cls-20,.cls-21,.cls-6,.cls-9{font-family:CenturyGothic-Bold, Century Gothic;font-weight:700;}.cls-7{stroke:#fff;stroke-width:5.67px;}.cls-12,.cls-24,.cls-7,.cls-8{stroke-miterlimit:10;}.cls-12,.cls-24,.cls-8{stroke:#1d1d1b;}.cls-24,.cls-8{stroke-width:2.83px;}.cls-10{fill:#e8e6e6;}.cls-10,.cls-11,.cls-20{letter-spacing:0.06em;}.cls-12{stroke-width:3.22px;}.cls-13{font-size:18.83px;letter-spacing:0.06em;}.cls-14{font-size:25.33px;letter-spacing:0.06em;}.cls-15{font-size:5.67px;letter-spacing:0.06em;}.cls-16,.cls-17{font-size:33.75px;letter-spacing:0.06em;}.cls-18{font-size:12.35px;letter-spacing:0.06em;}.cls-19{font-size:28.57px;letter-spacing:0.06em;}.cls-21{font-size:15.7px;}.cls-21,.cls-23{letter-spacing:0.06em;}.cls-22{letter-spacing:0.78em;}</style><clipPath id="clip-path"><rect class="cls-1" x="47.64" y="246.64" width="761.72" height="1213.05"/></clipPath></defs><g class="cls-2"><image width="1920" height="16415" transform="translate(47.64 246.64) scale(0.38)" xlink:href="../../../../../Downloads/FireShot%20Capture%20003%20-%20Homepage%20-%20National%20Geographic%20-%20www.nationalgeographic.nl.png"/></g><rect class="cls-3" width="1454.14" height="116.65"/><rect class="cls-4" x="470.81" y="667.89" width="218.04" height="123.57"/><rect class="cls-4" x="515.04" y="1268.22" width="193.47" height="109.65"/><rect class="cls-4" x="310.28" y="1258.01" width="204.77" height="113.04"/><rect class="cls-4" x="105.51" y="1258.01" width="204.77" height="113.04"/><rect class="cls-4" x="131.74" y="667.89" width="322.72" height="245.11"/><rect class="cls-4" x="469.45" y="839.98" width="219.4" height="123.57"/><rect class="cls-4" x="469.45" y="1015.64" width="219.4" height="123.57"/><rect class="cls-5" x="149.11" y="963.55" width="305.36" height="173.11"/><text class="cls-6" transform="translate(71.32 87.46)"><tspan xml:space="preserve">  Breakdownschets van NATGEO</tspan></text><rect class="cls-7" x="47.64" y="32.28" width="33.55" height="52.09"/><text class="cls-6" transform="translate(1003.92 87.46)">Luuk Eastman, INH05</text><polyline class="cls-8" points="798.13 246.64 820.6 246.64 820.6 294.62 798.13 294.62"/><polyline class="cls-8" points="798.13 297.7 820.6 297.7 820.6 1208.15 798.13 1208.15"/><text class="cls-9" transform="translate(829.53 284.4)">header&gt;nav*2&gt;ul&gt;li&gt;a</text><text class="cls-10" transform="translate(314.3 663.09)">NIEUWS</text><polyline class="cls-8" points="473.87 632.14 501.45 632.14 501.45 663.8 473.87 663.8"/><line class="cls-8" x1="501.45" y1="647.97" x2="820.6" y2="647.97"/><text class="cls-11" transform="translate(617.87 645.42)">h1</text><text class="cls-11" transform="translate(854.81 757.77)">section</text><polyline class="cls-12" points="692.94 667.89 709.79 667.89 709.79 827.21 692.94 827.21"/><polyline class="cls-8" points="731.49 667.89 756.77 667.89 756.77 827.21 731.49 827.21"/><path class="cls-3" d="M498.9,769.16h25.48a7.67,7.67,0,0,1,7.67,7.67v18.72a0,0,0,0,1,0,0H491.23a0,0,0,0,1,0,0V776.82A7.67,7.67,0,0,1,498.9,769.16Z"/><rect class="cls-3" x="559.42" y="712.33" width="40.81" height="26.39"/><text class="cls-13" transform="translate(561.66 730.66)">img</text><text class="cls-14" transform="translate(496.56 792.21)">h2</text><text class="cls-14" transform="translate(189.48 1371.04)">h2</text><text class="cls-14" transform="translate(375.07 1363.46)">h2</text><text class="cls-14" transform="translate(552.77 1371.04)">h2</text><rect class="cls-4" x="131.74" y="982.96" width="305.36" height="163.91"/><text class="cls-15" transform="translate(157.13 974.94)">FOTOGALERIJ</text><text class="cls-16" transform="translate(714.35 749.9)">a</text><text class="cls-17" transform="translate(664.97 1415.28)">a</text><polyline class="cls-8" points="709.79 752.93 756.77 752.93 820.6 752.93"/><text class="cls-18" transform="translate(765.19 744.53)">article</text><rect class="cls-3" x="248.19" y="1028.67" width="40.81" height="26.39"/><text class="cls-13" transform="translate(250.42 1047)">img</text><rect class="cls-3" x="157.61" y="1288.13" width="40.81" height="26.39"/><text class="cls-13" transform="translate(159.84 1306.47)">img</text><rect class="cls-3" x="392.26" y="1288.13" width="40.81" height="26.39"/><text class="cls-13" transform="translate(394.49 1306.47)">img</text><rect class="cls-3" x="591.37" y="1288.13" width="40.81" height="26.39"/><text class="cls-13" transform="translate(593.61 1306.47)">img</text><rect class="cls-3" x="281.38" y="950.36" width="40.81" height="26.39"/><text class="cls-13" transform="translate(283.62 968.69)">img</text><text class="cls-19" transform="translate(203.26 979.87)">h3</text><polyline class="cls-8" points="788.94 1208.15 820.6 1208.15 820.6 1434.87 804.77 1434.87"/><text class="cls-20" transform="translate(654.75 1247.98)">h1</text><text class="cls-21" transform="translate(946.89 1185.71)">section<tspan class="cls-22"><tspan x="0" y="18.83">	</tspan><tspan class="cls-23" x="16.61" y="18.83">h1/h1</tspan><tspan x="0" y="37.67">	</tspan><tspan class="cls-23" x="16.61" y="37.67">article</tspan><tspan x="0" y="56.5" xml:space="preserve">		</tspan><tspan class="cls-23" x="33.22" y="56.5">a </tspan><tspan x="0" y="75.34" xml:space="preserve">			</tspan><tspan class="cls-23" x="49.83" y="75.34">/img </tspan><tspan x="0" y="94.17" xml:space="preserve">			</tspan><tspan class="cls-23" x="49.83" y="94.17">h2/h2</tspan><tspan x="0" y="113.01" xml:space="preserve">		</tspan><tspan class="cls-23" x="33.22" y="113.01">/a</tspan><tspan x="0" y="131.84">	</tspan><tspan class="cls-23" x="16.61" y="131.84">/article</tspan><tspan x="0" y="150.68">	</tspan><tspan class="cls-23" x="16.61" y="150.68">article</tspan><tspan x="0" y="169.51" xml:space="preserve">		</tspan><tspan class="cls-23" x="33.22" y="169.51">a </tspan><tspan x="0" y="188.35" xml:space="preserve">			</tspan><tspan class="cls-23" x="49.83" y="188.35">/img </tspan><tspan x="0" y="207.18" xml:space="preserve">			</tspan><tspan class="cls-23" x="49.83" y="207.18">h2/h2</tspan><tspan x="0" y="226.02" xml:space="preserve">		</tspan><tspan class="cls-23" x="33.22" y="226.02">/a</tspan><tspan x="0" y="244.85">	</tspan><tspan class="cls-23" x="16.61" y="244.85">/article</tspan><tspan x="0" y="263.69">	</tspan><tspan class="cls-23" x="16.61" y="263.69">article</tspan><tspan x="0" y="282.52" xml:space="preserve">		</tspan><tspan class="cls-23" x="33.22" y="282.52">a </tspan><tspan x="0" y="301.35" xml:space="preserve">			</tspan><tspan class="cls-23" x="49.83" y="301.35">/img </tspan><tspan x="0" y="320.19" xml:space="preserve">			</tspan><tspan class="cls-23" x="49.83" y="320.19">h2/h2</tspan><tspan x="0" y="339.02" xml:space="preserve">		</tspan><tspan class="cls-23" x="33.22" y="339.02">/a</tspan><tspan x="0" y="357.86">	</tspan><tspan class="cls-23" x="16.61" y="357.86">/article</tspan></tspan><tspan x="0" y="376.69">/section</tspan></text><line class="cls-24" x1="820.6" y1="1327.64" x2="933.45" y2="1327.64"/></svg>
