<?xml version="1.0" encoding="utf-8"?>
<!-- Generator: Adobe Illustrator 24.3.0, SVG Export Plug-In . SVG Version: 6.00 Build 0)  -->
<svg version="1.1" id="Laag_1" xmlns="http://www.w3.org/2000/svg" xmlns:xlink="http://www.w3.org/1999/xlink" x="0px" y="0px"
	 viewBox="0 0 100 100" style="enable-background:new 0 0 100 100;" xml:space="preserve">
<g>
	<g>
		<path d="M95.1,8.8H4.9c-2.4,0-4.4-2-4.4-4.4v0C0.5,2,2.5,0,4.9,0h90.2c2.4,0,4.4,2,4.4,4.4v0C99.5,6.9,97.5,8.8,95.1,8.8z"/>
	</g>
	<g>
		<path d="M95.1,54.4H4.9c-2.4,0-4.4-2-4.4-4.4v0c0-2.4,2-4.4,4.4-4.4h90.2c2.4,0,4.4,2,4.4,4.4v0C99.5,52.4,97.5,54.4,95.1,54.4z"
			/>
	</g>
	<g>
		<path d="M95.1,100H4.9c-2.4,0-4.4-2-4.4-4.4v0c0-2.4,2-4.4,4.4-4.4h90.2c2.4,0,4.4,2,4.4,4.4v0C99.5,98,97.5,100,95.1,100z"/>
	</g>
</g>
</svg>
