<?xml version="1.0" encoding="utf-8"?>
<!-- Generator: Adobe Illustrator 24.3.0, SVG Export Plug-In . SVG Version: 6.00 Build 0)  -->
<svg version="1.1" id="Laag_1" xmlns="http://www.w3.org/2000/svg" xmlns:xlink="http://www.w3.org/1999/xlink" x="0px" y="0px"
	 viewBox="0 0 283.5 212.6" style="enable-background:new 0 0 283.5 212.6;" xml:space="preserve">
<style type="text/css">
	.st0{fill:#9D9D9C;}
	.st1{fill:#FFFFFF;}
</style>
<g>
	<rect class="st0" width="283.5" height="212.6"/>
	<g>
		<path class="st1" d="M62.3,83.9h6.9v36.4h-6.9V83.9z"/>
		<path class="st1" d="M80.5,83.9h6.8l8.4,25.4l8.5-25.4h6.8l6.1,36.4h-6.7l-3.9-23l-7.7,23h-6.1l-7.7-23l-4,23h-6.8L80.5,83.9z"/>
		<path class="st1" d="M133.7,83.9h7l14,36.4h-7.2l-2.8-7.5h-14.9l-3,7.5h-7.2L133.7,83.9z M137.2,93.5l-4.9,12.5h9.7L137.2,93.5z"
			/>
		<path class="st1" d="M193.7,89.8l-4.9,4.8c-3.1-3.3-6.7-4.9-10.8-4.9c-3.6,0-6.6,1.2-9,3.6c-2.4,2.4-3.6,5.3-3.6,8.7
			c0,3.5,1.3,6.5,3.8,8.9c2.5,2.4,5.6,3.7,9.3,3.7c2.4,0,4.4-0.5,6.1-1.5c1.6-1,3-2.6,4-4.7h-10.5v-6.5h18.3l0,1.5
			c0,3.2-0.8,6.2-2.5,9.1c-1.7,2.9-3.8,5-6.4,6.5c-2.6,1.5-5.7,2.3-9.2,2.3c-3.8,0-7.2-0.8-10.1-2.5c-3-1.6-5.3-4-7-7
			c-1.7-3-2.6-6.3-2.6-9.8c0-4.8,1.6-9,4.8-12.6c3.8-4.2,8.7-6.4,14.8-6.4c3.2,0,6.1,0.6,8.9,1.8C189.2,85.7,191.5,87.4,193.7,89.8z
			"/>
		<path class="st1" d="M202.7,83.9h19.9v6.8h-13v6.6h13v6.7h-13v9.6h13v6.8h-19.9V83.9z"/>
	</g>
</g>
</svg>
