<?xml version="1.0" encoding="utf-8"?>
<!-- Generator: Adobe Illustrator 24.3.0, SVG Export Plug-In . SVG Version: 6.00 Build 0)  -->
<svg version="1.1" id="Laag_1" xmlns="http://www.w3.org/2000/svg" xmlns:xlink="http://www.w3.org/1999/xlink" x="0px" y="0px"
	 viewBox="0 0 100 100" style="enable-background:new 0 0 100 100;" xml:space="preserve">
<path d="M65.6,12c8.7,11.9,7.3,27.6-1.9,37.7c-1,1-2.7,0.8-3.4-0.4l-0.1-0.2c-0.5-0.8-0.3-1.8,0.3-2.5c7.5-8.3,8.9-21.1,2.2-31
	C55.5,5,41.3,1.4,30,7.2c-12.9,6.7-17.4,22.7-10.3,35.1c7,12.1,22.5,16.2,34.5,9.2c0.7-0.4,1.3-0.8,1.9-1.2l26.6,46.1
	c0.6,1.1,0.2,2.4-0.8,3l0,0c-1.1,0.6-2.4,0.2-3-0.8L54.5,56.5c-13.9,6.7-30.8,1.6-38.7-11.9C7.1,29.4,13.3,9.7,29.8,2.4
	C42.3-3.1,57.4,0.9,65.6,12z"/>
</svg>
